<?xml version="1.0" standalone="no"?>
<!DOCTYPE svg PUBLIC "-//W3C//DTD SVG 20010904//EN"
 "http://www.w3.org/TR/2001/REC-SVG-20010904/DTD/svg10.dtd">
<svg version="1.0" xmlns="http://www.w3.org/2000/svg"
 width="512.000000pt" height="512.000000pt" viewBox="0 0 512.000000 512.000000"
 preserveAspectRatio="xMidYMid meet">
<metadata>
Created by potrace 1.11, written by Peter Selinger 2001-2013
</metadata>
<g transform="translate(0.000000,512.000000) scale(0.100000,-0.100000)"
fill="#000000" stroke="none">
<path d="M2284 5105 c-585 -64 -1106 -312 -1523 -725 -404 -399 -659 -906
-738 -1470 -24 -174 -24 -527 1 -705 84 -606 394 -1178 856 -1577 284 -246
639 -438 986 -533 625 -172 1287 -107 1851 181 665 339 1146 942 1326 1659 54
217 71 364 71 625 0 261 -17 408 -71 625 -241 962 -1029 1707 -1999 1890 -231
43 -527 55 -760 30z m583 -1557 c165 -249 506 -762 757 -1140 251 -377 456
-689 456 -692 0 -3 -69 -6 -153 -6 l-152 0 -87 133 c-47 72 -125 192 -172 265
l-86 132 -870 0 -870 0 -86 -132 c-47 -73 -125 -193 -172 -265 l-87 -133 -152
0 c-84 0 -153 3 -153 6 0 3 205 315 456 692 251 378 592 891 757 1140 165 248
303 452 307 452 4 0 142 -204 307 -452z"/>
<path d="M2515 3407 c-21 -34 -103 -159 -181 -277 -77 -118 -207 -315 -287
-438 -81 -123 -147 -228 -147 -233 0 -5 257 -9 660 -9 403 0 660 4 660 9 0 5
-66 110 -147 233 -80 123 -210 320 -287 438 -78 118 -160 243 -181 277 -22 35
-42 63 -45 63 -3 0 -23 -28 -45 -63z"/>
</g>
</svg>
