<?xml version="1.0" encoding="iso-8859-1"?>
<!-- Generator: Adobe Illustrator 19.1.0, SVG Export Plug-In . SVG Version: 6.00 Build 0)  -->
<svg version="1.1" id="Capa_1" xmlns="http://www.w3.org/2000/svg" xmlns:xlink="http://www.w3.org/1999/xlink" x="0px" y="0px"
	 viewBox="0 0 78 78" style="enable-background:new 0 0 78 78;" xml:space="preserve">
<g>
	<g>
		<path d="M9.074,57.34H12v12.32c0,0.747,0.416,1.432,1.08,1.775c0.289,0.15,0.605,0.225,0.92,0.225c0.405,0,0.81-0.063,1.153-0.306
			L35.102,57.34h18.476l9.294,6.292c0.339,0.232,0.733,0.319,1.129,0.319c0.319,0,0.641-0.092,0.934-0.247
			C65.59,63.359,66,62.663,66,61.922V50.34h3.345c4.61,0,8.655-4.539,8.655-9.578V14.523c0-4.733-3.721-8.183-8.655-8.183h-44.86
			c-4.47,0-9.274,3-9.467,8H9.075C3.901,14.34,0,17.677,0,22.261V48.5C0,53.227,4.155,57.34,9.074,57.34z M19,14.523
			c0-2.574,2.836-4.183,5.484-4.183h44.86c2.742,0,4.656,1.65,4.656,4.183v26.239c0,2.576-1.991,5.578-4.655,5.578H64
			c-1.104,0-2,0.776-2,1.881v9.911L45.082,46.629c-0.333-0.227-0.727-0.289-1.129-0.289H24.484c-2.665,0-5.484-2.926-5.484-5.578
			V14.523z M4,22.261c0-2.652,2.553-3.921,5.074-3.921H15v22.422c0,4.861,4.609,9.578,9.484,9.578h18.851l4.39,3H34.467
			c-0.413,0-0.815,0.068-1.153,0.306L16,65.801v-10.58c0-1.105-0.896-1.881-2-1.881H9.074C6.323,53.34,4,51.059,4,48.5V22.261z"/>
	</g>
</g>
<g>
</g>
<g>
</g>
<g>
</g>
<g>
</g>
<g>
</g>
<g>
</g>
<g>
</g>
<g>
</g>
<g>
</g>
<g>
</g>
<g>
</g>
<g>
</g>
<g>
</g>
<g>
</g>
<g>
</g>
</svg>
