<?xml version="1.0" encoding="iso-8859-1"?>
<!-- Generator: Adobe Illustrator 19.1.0, SVG Export Plug-In . SVG Version: 6.00 Build 0)  -->
<svg version="1.1" id="Capa_1" xmlns="http://www.w3.org/2000/svg" xmlns:xlink="http://www.w3.org/1999/xlink" x="0px" y="0px"
	 viewBox="0 0 78.002 78.002" style="enable-background:new 0 0 78.002 78.002;" xml:space="preserve">
<g>
	<g>
		<path d="M0.972,71.884c0.322,0.193,0.677,0.285,1.027,0.285c0.68,0,1.342-0.346,1.717-0.971l15.035-25.059l7.098,11.83
			c0.238,0.396,0.598,0.666,0.998,0.821c0.043,0.029,0.079,0.065,0.125,0.093c0.322,0.193,0.677,0.285,1.027,0.285
			c0.68,0,1.342-0.346,1.717-0.971l15.035-25.059l7.098,11.83c0.238,0.396,0.597,0.665,0.997,0.82
			c0.041,0.029,0.075,0.063,0.119,0.09c0.324,0.196,0.682,0.289,1.034,0.289c0.677,0,1.337-0.343,1.713-0.964L77.713,8.87
			c0.572-0.945,0.27-2.175-0.675-2.747c-0.947-0.572-2.176-0.27-2.747,0.675L53.858,40.544L46.715,28.64
			c-0.42-0.7-1.2-1.047-1.961-0.952c-0.763-0.099-1.547,0.249-1.969,0.952L27.85,53.532l-7.135-11.893
			c-0.42-0.699-1.199-1.046-1.959-0.953c-0.765-0.099-1.55,0.249-1.971,0.953l-16.5,27.5C-0.282,70.087,0.024,71.316,0.972,71.884z"
			/>
	</g>
</g>
<g>
</g>
<g>
</g>
<g>
</g>
<g>
</g>
<g>
</g>
<g>
</g>
<g>
</g>
<g>
</g>
<g>
</g>
<g>
</g>
<g>
</g>
<g>
</g>
<g>
</g>
<g>
</g>
<g>
</g>
</svg>
