<?xml version="1.0" encoding="iso-8859-1"?>
<!-- Generator: Adobe Illustrator 19.1.0, SVG Export Plug-In . SVG Version: 6.00 Build 0)  -->
<svg version="1.1" id="Capa_1" xmlns="http://www.w3.org/2000/svg" xmlns:xlink="http://www.w3.org/1999/xlink" x="0px" y="0px"
	 viewBox="0 0 26 26" style="enable-background:new 0 0 26 26;" xml:space="preserve">
<g>
	<g>
		<path d="M26,7.001C26,3.134,22.865,0,18.998,0H7.002C3.135,0,0,3.134,0,7.001v11.998C0,22.865,3.135,26,7.002,26h11.996
			C22.865,26,26,22.865,26,18.999V7.001z M22,18.999C22,20.656,20.656,22,18.998,22H7.002C5.344,22,4,20.656,4,18.999V7.001
			C4,5.344,5.344,4,7.002,4h11.996C20.656,4,22,5.344,22,7.001V18.999z"/>
	</g>
</g>
<g>
</g>
<g>
</g>
<g>
</g>
<g>
</g>
<g>
</g>
<g>
</g>
<g>
</g>
<g>
</g>
<g>
</g>
<g>
</g>
<g>
</g>
<g>
</g>
<g>
</g>
<g>
</g>
<g>
</g>
</svg>
