<?xml version="1.0" encoding="iso-8859-1"?>
<!-- Generator: Adobe Illustrator 19.1.0, SVG Export Plug-In . SVG Version: 6.00 Build 0)  -->
<svg version="1.1" id="Capa_1" xmlns="http://www.w3.org/2000/svg" xmlns:xlink="http://www.w3.org/1999/xlink" x="0px" y="0px"
	 viewBox="0 0 74 74" style="enable-background:new 0 0 74 74;" xml:space="preserve">
<g>
	<g>
		<path d="M48,32.014c0-3.044-2.469-5.513-5.514-5.513h-8.973c-3.045,0-5.514,2.468-5.514,5.513v8.975
			c0,3.045,2.469,5.513,5.514,5.513h8.973c3.045,0,5.514-2.468,5.514-5.513V32.014z M44,40.987c0,0.835-0.678,1.513-1.514,1.513
			h-8.973c-0.836,0-1.514-0.678-1.514-1.513v-8.975c0-0.835,0.678-1.513,1.514-1.513h8.973c0.836,0,1.514,0.677,1.514,1.513V40.987z
			"/>
		<path d="M74,16.526c0-4.985-4.041-9.026-9.026-9.026H9.026C4.041,7.501,0,11.542,0,16.527v40.947C0,62.458,4.041,66.5,9.026,66.5
			h55.947c4.985,0,9.026-4.041,9.026-9.026L74,16.526L74,16.526z M70,57.474c0,2.776-2.25,5.026-5.026,5.026H9.026
			C6.25,62.5,4,60.25,4,57.474V16.526C4,13.75,6.25,11.5,9.026,11.5h55.947c2.776,0,5.026,2.25,5.026,5.026L70,57.474L70,57.474z"/>
	</g>
</g>
<g>
</g>
<g>
</g>
<g>
</g>
<g>
</g>
<g>
</g>
<g>
</g>
<g>
</g>
<g>
</g>
<g>
</g>
<g>
</g>
<g>
</g>
<g>
</g>
<g>
</g>
<g>
</g>
<g>
</g>
</svg>
