<?xml version="1.0" encoding="iso-8859-1"?>
<!-- Generator: Adobe Illustrator 19.1.0, SVG Export Plug-In . SVG Version: 6.00 Build 0)  -->
<svg version="1.1" id="Capa_1" xmlns="http://www.w3.org/2000/svg" xmlns:xlink="http://www.w3.org/1999/xlink" x="0px" y="0px"
	 viewBox="0 0 70 70" style="enable-background:new 0 0 70 70;" xml:space="preserve">
<g>
	<g>
		<path d="M70,29.597c0-5.188-3.721-9.789-8.908-9.789h-5.62c-0.744-10-9.411-18.616-19.984-18.616S16.247,9.808,15.503,19.808
			H9.908C4.72,19.808,0,24.41,0,29.597v30.184c0,5.188,4.721,9.027,9.908,9.027h51.184c5.188,0,8.908-3.84,8.908-9.027
			C70,59.781,70,29.597,70,29.597z M19,23.808v41h-4v-41H19z M23,23.808h24v41H23V23.808z M51,23.808h4v41h-4V23.808z M35.487,5.192
			c8.368,0,15.253,6.616,15.984,14.616H19.503C20.235,11.808,27.12,5.192,35.487,5.192z M4,59.781V29.597
			c0-2.982,2.926-5.789,5.908-5.789H11v41H9.908C6.926,64.808,4,62.763,4,59.781z M66,59.781c0,2.982-1.926,5.027-4.908,5.027H59
			v-41h2.092c2.982,0,4.908,2.807,4.908,5.789V59.781z"/>
	</g>
</g>
<g>
</g>
<g>
</g>
<g>
</g>
<g>
</g>
<g>
</g>
<g>
</g>
<g>
</g>
<g>
</g>
<g>
</g>
<g>
</g>
<g>
</g>
<g>
</g>
<g>
</g>
<g>
</g>
<g>
</g>
</svg>
