<?xml version="1.0" encoding="iso-8859-1"?>
<!-- Generator: Adobe Illustrator 19.1.0, SVG Export Plug-In . SVG Version: 6.00 Build 0)  -->
<svg version="1.1" id="Capa_1" xmlns="http://www.w3.org/2000/svg" xmlns:xlink="http://www.w3.org/1999/xlink" x="0px" y="0px"
	 viewBox="0 0 76 76" style="enable-background:new 0 0 76 76;" xml:space="preserve">
<g>
	<g>
		<path d="M76,16.796C76,13.424,73.33,11,69.789,11H6.188C2.66,11,0,13.424,0,16.796v41.6C0,61.911,2.834,65,6.188,65h63.601
			C73.156,65,76,61.911,76,58.396V16.796z M72,58.396C72,59.673,70.926,61,69.789,61H6.188C5.043,61,4,59.696,4,58.396v-41.6
			C4,15.48,5.134,15,6.188,15h63.601C70.854,15,72,15.48,72,16.796V58.396z"/>
		<path d="M69,20c0-1.104-0.896-2-2-2H16c-1.104,0-2,0.896-2,2v36c0,1.104,0.896,2,2,2h51c1.104,0,2-0.896,2-2V20z M65,54H18V22h47
			V54z"/>
		<circle cx="8.944" cy="38.096" r="3.455"/>
	</g>
</g>
<g>
</g>
<g>
</g>
<g>
</g>
<g>
</g>
<g>
</g>
<g>
</g>
<g>
</g>
<g>
</g>
<g>
</g>
<g>
</g>
<g>
</g>
<g>
</g>
<g>
</g>
<g>
</g>
<g>
</g>
</svg>
