<?xml version="1.0" encoding="iso-8859-1"?>
<!-- Generator: Adobe Illustrator 19.1.0, SVG Export Plug-In . SVG Version: 6.00 Build 0)  -->
<svg version="1.1" id="Capa_1" xmlns="http://www.w3.org/2000/svg" xmlns:xlink="http://www.w3.org/1999/xlink" x="0px" y="0px"
	 viewBox="0 0 91.781 91.781" style="enable-background:new 0 0 91.781 91.781;" xml:space="preserve">
<g>
	<g>
		<path d="M72.89,27.065c-10.416,0-18.891,8.283-18.891,18.699c0,6.255,3.068,12.043,7.765,15.043H30.016
			c4.696-3,7.765-8.788,7.765-15.043c0-10.416-8.475-18.794-18.891-18.794S0,35.491,0,45.907c0,9.826,7.543,17.751,17.142,18.637
			c0.338,0.265,0.76,0.263,1.225,0.263h54c0.433,0,0.83,0.05,1.157-0.184c10.121-0.338,18.257-8.561,18.257-18.764
			C91.781,35.443,83.306,27.065,72.89,27.065z M4,45.954c0-8.21,6.68-14.89,14.891-14.89s14.891,6.68,14.891,14.89
			c0,8.211-6.68,14.892-14.891,14.892S4,54.165,4,45.954z M72.89,60.846c-8.211,0-14.891-6.681-14.891-14.892
			c0-8.21,6.68-14.89,14.891-14.89s14.891,6.68,14.891,14.89C87.781,54.165,81.101,60.846,72.89,60.846z"/>
	</g>
</g>
<g>
</g>
<g>
</g>
<g>
</g>
<g>
</g>
<g>
</g>
<g>
</g>
<g>
</g>
<g>
</g>
<g>
</g>
<g>
</g>
<g>
</g>
<g>
</g>
<g>
</g>
<g>
</g>
<g>
</g>
</svg>
