<?xml version="1.0" encoding="iso-8859-1"?>
<!-- Generator: Adobe Illustrator 19.1.0, SVG Export Plug-In . SVG Version: 6.00 Build 0)  -->
<svg version="1.1" id="Capa_1" xmlns="http://www.w3.org/2000/svg" xmlns:xlink="http://www.w3.org/1999/xlink" x="0px" y="0px"
	 viewBox="0 0 64.547 64.547" style="enable-background:new 0 0 64.547 64.547;" xml:space="preserve">
<g>
	<g>
		<path d="M31.165,64.06c0.35,0.3,0.798,0.487,1.295,0.487c0.506,0,0.963-0.194,1.316-0.505
			c16.373-0.833,29.541-14.017,30.352-30.396c0.209-0.315,0.332-0.693,0.332-1.1c0-0.387-0.115-0.745-0.305-1.05
			C63.861,14.08,49.612,0,32.128,0C14.461,0,0.087,14.374,0.087,32.042C0.087,49.388,13.942,63.547,31.165,64.06z M30.46,4.055
			v17.492c0,1.104,0.896,2,2,2s2-0.896,2-2V4.105c13.883,1.15,24.929,12.561,25.668,26.561H43.46c-1.104,0-2,0.896-2,2
			c0,1.104,0.896,2,2,2h16.592c-1.203,13-12.045,24.191-25.592,25.313V43.547c0-1.104-0.896-2-2-2s-2,0.896-2,2V60.03
			C16.605,59.213,5.427,48.666,4.205,34.666H21.46c1.104,0,2-0.896,2-2c0-1.104-0.896-2-2-2H4.128
			C4.879,16.666,16.267,4.892,30.46,4.055z"/>
	</g>
</g>
<g>
</g>
<g>
</g>
<g>
</g>
<g>
</g>
<g>
</g>
<g>
</g>
<g>
</g>
<g>
</g>
<g>
</g>
<g>
</g>
<g>
</g>
<g>
</g>
<g>
</g>
<g>
</g>
<g>
</g>
</svg>
