<?xml version="1.0" encoding="iso-8859-1"?>
<!-- Generator: Adobe Illustrator 19.1.0, SVG Export Plug-In . SVG Version: 6.00 Build 0)  -->
<svg version="1.1" id="Capa_1" xmlns="http://www.w3.org/2000/svg" xmlns:xlink="http://www.w3.org/1999/xlink" x="0px" y="0px"
	 viewBox="0 0 66.909 66.909" style="enable-background:new 0 0 66.909 66.909;" xml:space="preserve">
<g>
	<g>
		<path d="M3.01,66.909h47.695c1.105,0,2-0.896,2-2c0-1.018-0.051-2-0.129-3H63.9c1.104,0,2-0.955,2-2.06
			c0-15.181-10.975-27.964-14.452-31.625c3.544-2.921,5.808-7.358,5.808-12.3C57.256,7.148,50.117,0,41.341,0
			c-3.233,0-6.401,0.998-9.047,2.826c-1.719-0.599-3.558-0.942-5.479-0.942c-9.229,0-16.737,7.507-16.737,16.736
			c0,5.16,2.35,9.778,6.033,12.851c-4.175,4.181-15.102,16.77-15.102,33.377C1.01,65.954,1.906,66.909,3.01,66.909z M61.828,57.909
			h-9.771c-2.436-13-11.094-22.905-14.585-26.333c0.051-0.042,0.096-0.12,0.145-0.162c1.216,0.292,2.465,0.427,3.726,0.427
			c2.368,0,4.609-0.482,6.632-1.415C49.967,32.458,60.832,43.909,61.828,57.909z M41.341,3.993c6.57,0,11.915,5.346,11.915,11.917
			c0,6.57-5.345,11.916-11.915,11.916c-0.185,0-0.366-0.013-0.55-0.021c1.74-2.639,2.761-5.793,2.761-9.184
			c0-5.611-2.784-10.574-7.034-13.612C38.019,4.341,39.648,3.993,41.341,3.993z M14.079,18.62c0-7.023,5.714-12.737,12.737-12.737
			s12.736,5.714,12.736,12.737s-5.713,12.736-12.736,12.736S14.079,25.643,14.079,18.62z M19.576,33.746
			c2.195,1.06,4.644,1.64,7.24,1.64c2.567,0,4.991-0.553,7.167-1.59c2.652,2.509,13.744,14.113,14.662,29.113H5.071
			C5.971,47.909,16.653,36.586,19.576,33.746z"/>
	</g>
</g>
<g>
</g>
<g>
</g>
<g>
</g>
<g>
</g>
<g>
</g>
<g>
</g>
<g>
</g>
<g>
</g>
<g>
</g>
<g>
</g>
<g>
</g>
<g>
</g>
<g>
</g>
<g>
</g>
<g>
</g>
</svg>
