<?xml version="1.0" encoding="iso-8859-1"?>
<!-- Generator: Adobe Illustrator 19.1.0, SVG Export Plug-In . SVG Version: 6.00 Build 0)  -->
<svg version="1.1" id="Capa_1" xmlns="http://www.w3.org/2000/svg" xmlns:xlink="http://www.w3.org/1999/xlink" x="0px" y="0px"
	 viewBox="0 0 67.315 67.315" style="enable-background:new 0 0 67.315 67.315;" xml:space="preserve">
<g>
	<g>
		<path d="M44.463,56.68c-0.781-0.781-2.048-0.78-2.829,0c-0.781,0.781-0.781,2.047-0.001,2.828l6.814,6.815
			c0.133,0.198,0.297,0.378,0.503,0.524c0.351,0.248,0.755,0.367,1.154,0.367c0.627,0,1.244-0.293,1.634-0.844l12.076-17.049
			c0.639-0.9,0.426-2.149-0.476-2.787c-0.901-0.641-2.149-0.426-2.788,0.475l-10.68,15.08L44.463,56.68z"/>
		<path d="M5.133,67.315h36.049c1.104,0,2-0.896,2-2s-0.896-2-2-2H7.192c0.896-15,11.842-27.349,14.942-30.431
			c2.346,1.186,4.987,1.839,7.79,1.839c2.695,0,5.237-0.651,7.516-1.752c1.956,1.831,8.452,8.359,12.331,17.736
			c0.318,0.771,1.062,1.232,1.849,1.232c0.255,0,0.514-0.051,0.763-0.154c1.021-0.422,1.507-1.593,1.084-2.613
			c-3.805-9.196-9.786-15.727-12.545-18.423c3.872-3.184,6.347-8.009,6.347-13.402C47.269,7.782,39.488,0,29.923,0
			S12.576,7.782,12.576,17.347c0,5.296,2.392,10.038,6.145,13.222C14.464,34.903,3.133,48.108,3.133,65.256
			C3.133,66.36,4.029,67.315,5.133,67.315z M16.577,17.347C16.577,9.988,22.564,4,29.924,4C37.282,4,43.27,9.987,43.27,17.347
			s-5.988,13.346-13.347,13.346S16.577,24.706,16.577,17.347z"/>
	</g>
</g>
<g>
</g>
<g>
</g>
<g>
</g>
<g>
</g>
<g>
</g>
<g>
</g>
<g>
</g>
<g>
</g>
<g>
</g>
<g>
</g>
<g>
</g>
<g>
</g>
<g>
</g>
<g>
</g>
<g>
</g>
</svg>
