<?xml version="1.0" encoding="iso-8859-1"?>
<!-- Generator: Adobe Illustrator 19.1.0, SVG Export Plug-In . SVG Version: 6.00 Build 0)  -->
<svg version="1.1" id="Capa_1" xmlns="http://www.w3.org/2000/svg" xmlns:xlink="http://www.w3.org/1999/xlink" x="0px" y="0px"
	 viewBox="0 0 76.666 76.666" style="enable-background:new 0 0 76.666 76.666;" xml:space="preserve">
<g>
	<g>
		<circle cx="38.677" cy="59.716" r="7.442"/>
		<path d="M38.445,40.013c-6.839,0-13.212,3.068-17.485,8.419c-0.689,0.863-0.549,2.121,0.314,2.811
			c0.368,0.295,0.809,0.438,1.247,0.438c0.587,0,1.169-0.258,1.563-0.752c3.511-4.395,8.744-6.915,14.36-6.915
			c5.599,0,10.822,2.506,14.33,6.875c0.692,0.862,1.951,0.999,2.812,0.308s0.999-1.95,0.308-2.812
			C51.622,43.064,45.262,40.013,38.445,40.013z"/>
		<path d="M38.057,23.609c0,0-0.003,0-0.004,0c-10.815,0-20.896,5.271-27.653,13.731c-0.689,0.863-0.549,2.438,0.314,3.128
			c0.368,0.295,0.81,0.484,1.247,0.484c0.587,0,1.169-0.646,1.563-1.14c5.996-7.505,14.937-12.203,24.53-12.203h0.003
			c9.563,0,18.486,4.639,24.479,12.104c0.692,0.862,1.951,1.262,2.812,0.568c0.861-0.691,0.999-2.203,0.308-3.064
			C58.899,28.8,48.84,23.609,38.057,23.609z"/>
		<path d="M38.369,9.509C23.538,9.513,9.712,16.171,0.437,27.776c-0.689,0.863-0.549,2.122,0.313,2.812
			c0.369,0.295,0.81,0.438,1.248,0.438c0.587,0,1.168-0.257,1.563-0.751c8.512-10.65,21.198-16.761,34.808-16.765
			c13.569,0,26.23,6.075,34.737,16.668c0.693,0.862,1.95,0.998,2.812,0.308c0.861-0.691,0.999-1.95,0.308-2.812
			C66.956,16.13,53.159,9.509,38.369,9.509z"/>
	</g>
</g>
<g>
</g>
<g>
</g>
<g>
</g>
<g>
</g>
<g>
</g>
<g>
</g>
<g>
</g>
<g>
</g>
<g>
</g>
<g>
</g>
<g>
</g>
<g>
</g>
<g>
</g>
<g>
</g>
<g>
</g>
</svg>
