<?xml version="1.0" encoding="iso-8859-1"?>
<!-- Generator: Adobe Illustrator 19.1.0, SVG Export Plug-In . SVG Version: 6.00 Build 0)  -->
<svg version="1.1" id="Capa_1" xmlns="http://www.w3.org/2000/svg" xmlns:xlink="http://www.w3.org/1999/xlink" x="0px" y="0px"
	 viewBox="0 0 68 68" style="enable-background:new 0 0 68 68;" xml:space="preserve">
<g>
	<g>
		<path d="M37.158,38C46.996,38,54.5,30.008,54.5,19.717V2.381C54.5,1.277,54.104,0,53,0H16c-1.104,0-2.5,1.276-2.5,2.381v17.336
			c0,9.96,9,18.379,18,18.64V64H20c-1.104,0-2,0.896-2,2s0.896,2,2,2h29c1.104,0,2-0.896,2-2s-0.896-2-2-2H35.5V38H37.158z
			 M17.5,19.717V4h33v15.717C50.5,27.666,44.662,34,37.158,34h-4.696C24.758,34,17.5,27.528,17.5,19.717z"/>
	</g>
</g>
<g>
</g>
<g>
</g>
<g>
</g>
<g>
</g>
<g>
</g>
<g>
</g>
<g>
</g>
<g>
</g>
<g>
</g>
<g>
</g>
<g>
</g>
<g>
</g>
<g>
</g>
<g>
</g>
<g>
</g>
</svg>
