<?xml version="1.0" encoding="iso-8859-1"?>
<!-- Generator: Adobe Illustrator 19.1.0, SVG Export Plug-In . SVG Version: 6.00 Build 0)  -->
<svg version="1.1" id="Capa_1" xmlns="http://www.w3.org/2000/svg" xmlns:xlink="http://www.w3.org/1999/xlink" x="0px" y="0px"
	 viewBox="0 0 67.897 67.897" style="enable-background:new 0 0 67.897 67.897;" xml:space="preserve">
<g>
	<g>
		<path d="M36.155,38c10.012,0,18.294-8.344,18.294-18.29V2.381c0-1.104-0.396-2.381-1.5-2.381h-37c-1.104,0-2.5,1.276-2.5,2.381
			V19.71c0,10.295,8.355,18.29,18.01,18.29h-0.01v21.016c-5,0.396-10.231,2.36-13.424,5.442c-0.795,0.768-0.692,2.033,0.075,2.828
			c0.392,0.407,0.978,0.611,1.501,0.611c0.5,0,1.032-0.187,1.42-0.561c2.633-2.541,6.964-4.121,11.723-4.356
			c0.333,0.248,0.75,0.4,1.197,0.4c0.449,0,0.863-0.153,1.197-0.404c4.54,0.218,8.744,1.679,11.406,4.029
			c0.828,0.731,2.093,0.652,2.825-0.176c0.73-0.827,0.403-2.092-0.425-2.822c-3.25-2.869-7.496-4.642-13.496-5V38H36.155z
			 M17.449,19.71V4h33v15.71c0,7.815-6.413,14.29-14.294,14.29h-4.696C24.01,34,17.449,27.8,17.449,19.71z"/>
	</g>
</g>
<g>
</g>
<g>
</g>
<g>
</g>
<g>
</g>
<g>
</g>
<g>
</g>
<g>
</g>
<g>
</g>
<g>
</g>
<g>
</g>
<g>
</g>
<g>
</g>
<g>
</g>
<g>
</g>
<g>
</g>
</svg>
